<mxfile host="65bd71144e">
    <diagram id="v5J5cevGyy1A816awljk" name="Page-1">
        <mxGraphModel dx="894" dy="582" grid="1" gridSize="10" guides="1" tooltips="1" connect="1" arrows="1" fold="1" page="1" pageScale="1" pageWidth="850" pageHeight="1100" math="0" shadow="0">
            <root>
                <mxCell id="0"/>
                <mxCell id="1" parent="0"/>
                <mxCell id="2" value="" style="shape=image;verticalLabelPosition=bottom;labelBackgroundColor=default;verticalAlign=top;aspect=fixed;imageAspect=0;image=data:image/png,iVBORw0KGgoAAAANSUhEUgAABSoAAAHACAYAAAClPFZJAAAAAXNSR0IArs4c6QAAAARnQU1BAACxjwv8YQUAAAAJcEhZcwAAITcAACE3ATNYn3oAAAASdEVYdFNvZnR3YXJlAEdyZWVuc2hvdF5VCAUAACJ7SURBVHhe7d1fjFx13fhxLrjo5V7uxXMhye+CJs9NEy7k0oY/sv6htLDS5U/SbtUisYjlCdJCJAjFYGu0VmOwFPmZEhX290iTbvDPNmBJCSI0im59XKgUo0sgzT5QyFKKfn9zZs6ZOTN7ZrvdbffT3X29kk/SzsyZmfNtre2b8+eCBAAAAAAQTKgEAAAAAMIJlQAAAABAOKESAAAAAAgnVAIAAAAA4YRKAAAAACCcUAkAAAAAhBMqAQAAAIBwQiUAAAAAEE6oBAAAAADCCZUAAAAAQLjKUPn73//eGGOMMcYYY4wxxhhjzmjmQqg0xhhjjDHGGGOMMcaclZmLaUMlAAAAAMDpCJUAAAAAQDihEgAAAAAIJ1QCAAAAAOGESgAAAAAgnFAJAAAAAIQTKgEAAACAcEIlAAAAABBOqAQAAAAAwgmVAAAAAEA4oRIAAAAACCdUAgAAAADhhEoAAAAAIJxQCQAAAACEEyoBAAAAgHBCJQAAAAAQTqgEAAAAAMIJlQAAAABAOKESAAAAAAgnVAIAAAAA4YRKAAAAACCcUAkAAAAAhBMqAQAAAIBwQiUAAAAAEE6oBAAAAADCCZUAAAAAQDihEgCAGZucnEzDw8Np27Ztac2aNemGG25I3/3ud9M///nP/BUAADA7QiUAADPy+uuvp3Xr1qXLLruscr73ve+lf//73/mrAQDgzAiVwLx59tlnp/0HbnmuvfbadOedd6bHHnssvf/++/k7LCxPP/10/Wijqv2bbrJtsm2XqmLdOtdhtuvZbZbaOp/t9es2Ueu62PfvfDAyMpI+9alPVa5Lee6+++704Ycf5lsBAMDMLbFQeSzt3VD8RXp92vO3/OHTOPhAsc22dDB/jJo39qb1+T9Ktj2XPwbTGBwczP+3dGbzuc99Lr300kv5uywcc4km2bZLVXndyuswl/XsNktpnc/F+nWbiHVd7PsX7Re/+EXlWnSbr3zlK+mjjz7KtwYAgJlZwqGyNhv2pGMz+Du0UNmFUNnVb37zm7Rhw4b6ZD+mofm/vVnOCy+8kL/TwjCXcLIUQ0ihvG7ldZjLenabpbTO52L9uk3Eui72/Yv03HPPTVmDyy+/PP3gBz9Ib775Zjpy5Ej9/+86X/O1r33NaeAAAJyRpR0qa7P+x8fy57oTKrsQKivt27ev+furmOwx5h4qs9PBF9Jp4LM9FTXbZqmeWpop1q1zHWa7nt1mqa3z2V6/bhO1rot9/6K89957adWqVW1rkP388OHD+Ssasj+bv/rVr7a9Lpuf/vSn+SsAAOD0lnyonMkp4EJlF0LlFFWRshixcmqonM7x48fTr371q9Tf39+2zVNPPZW/YmH6/ve/37Y/2RFJAOerH//4x21/ZmXT7e932XUpH3jggbbX9vX1pQ8++CB/BQAATG/phsoNG9PGK4sfT38KuFDZhVDZJgtojd8n3WehR7a56lyPmXjmmWfatsn+EbyQZddtK++PSwMA57POP7N+9KMf5c+0ZEddZpPJTvW+66672rY5eNDfngAAmJmlGyofOJiO/WRj8y/R050CPqNQeXwsDe/alNb39zXfs29Nf9p439508B8n8xd1eG5b47Ub9qZjHx1Lw/etT331eNqXVn3p3vTU/9S2a8bAxmef/MfBtGfL+rSqr/EZl/Wtqn3GE+nw8cZb1l6Rxg/sTJvWrUp9xffo35h2HBivPdPdybf+nIYf2ZI2rm1tV2y75ZHhNNZ8/xKhsimLTcWanW4OHDiQb7X0dK7FTLzzzjtt26xduzZ/ZuHJ/gHfecfcY8dOf/kJOBeyI5bXr19fn9/+9rf5owvXs88+29yfbN84Oz772c+2/Zn12muv5c80ZKfBF88Vp8S/8cYbbds8+OCD9ccBAOB0lnSoTB/Vfv7F4i/S3U8BP12oHH/63tRfHJ1ZOavSHU+OTQ2FzVC5LW1rfo9iNqUn3qq9phQqh2uv7/o5a2rf7cSJdPCb7afJlqd/V/v1pArH/vuOtKri9W3TtzE90bk+QmXT9ddfP3XNuswNN9ywZG8u0LkWM9EZKrNTwReq119/vW1fsmgJETqPAF/ofy5ld5fO9qG8T0v9CPazJfuPQ+V1ffXVV/NnGkdSlp/LpoiV5e2y6wsDAMBMLO1Qmfnb3tOeAj5dqDzx3LZW5Ou/Nz0xOp5O1t/jZDrx6kjasa51hOXGn3UcOVWEyvqsSnf85HA6nm178nj68yvHGmGzFAMvy75n/TOON5776GQa+9mm5uevWtO42P2N3xxJYycaWfTkW4fTD5sRNI+fZYd3tra/Y286/GYrp57837E08s0b821rc8dwajuwUqhsGhwcbK3TaUaobM1MdJ76vWXLlvyZhefXv/51277cfvvt+TMwf7pdpmKhh8rsLtSd+yRWzt13vvOdtjW97bbb0qlTp+rPVYXKbLJYefXVVzd/nv3aXHXVVfU/8/bs2ZP++Mc/1rcHAIBOQmVN+RTwGx8eyx9t6RoqPzqcdq7Jn9uwJ41NOWSypnzU5pVb0vCJ/PFMOVTePVJ9anZbqOzYvu54euLL+fO1WfXdiqMmS++x5enyp5xMI3fn297wwzRWeZ3O0ms691+obMpOObz55pvzdeo+V1xxxZK+VlfnekynuJnOdddd17bNo48+mr9i4XEjHaJ1i5TZLHRV+5SNWDk3b775Zv3/u8prmv0HoywOZ8qnfp/J7Nixo37zHQAAKBMqM22ngN+Yfvg/+eO5rqGyGRpXpR3T7eqre9KN9dddljY9WTomsRQq2wNiSSkGVkbImrGHi9O916e9b+QPtjmYtuXvsf4n5aM6/5x+uK4/9a/p63i83fH/3pS//8b0xD/yBzNCJWeo8fto9pMdofP222/n77bwuJHOzGThY82aNfUpTiPNFI+X13Au0/n+i112fdyqdSim02zXO2pdq75LMVXXBl5o+xfpySefnLIO3/jGN5qhMVuPzudnMhs2bEjvvvtu/T0AACAjVBbKp4B3HF3YLVQ2A+GVtccrj0YsHEt71uXvcV/pHZqhsvv1MbsfDdly7Cfr8/fpCKlN3ULlDJW+Z1sIFSo5Q43fR7Of1atXp5deeil/t4XFjXRmrhyPsh8XZhOVTjfl91/Mqq7h2Dmd5rLeEeta9T2Kuemmm6ac2r7Q9i/at771rSnrkIXG0dHR+tpOFytvvPHGtGpV4/I0nZOdSu7ISgAACkJlSbdTwLuFyubj2V2788e6OXhfxWu7BcCyGcTAsxsqT6YTx4+n8dEX0siTe9KOLRtbdxgXKpmjxu+juc8LL7yQv+PC4UY6M1cOSOUgNJew1G2WSnASKoXKucquS9l5VHgx11xzTX2Nq57LJouY2fr/6U9/qsfNzufvv//+/FMAAFjqhMqyLqeAn5VQWfXa8yRUnvzHwbT3W5vS+jWtG/9Uj1DJ3Ez9PTW7ye4g+/777+fvujC4kc7MZVEjC0HZZD8uFI+X13Eu0/n+i51Tv9sttP07H2SX3qgKjTOZYs2yoye//vWvT3n+kUceqT8PAMDSJlR2qjgFfDEfUdl21/JiPtOf+tdtSvfu2puGfz+WThxw6vfpZDfTWb+++HXoPtlrFuLRgGdL53rMRHFTnf7+4lqsjVloN8hwIx3OB26mw1x98MEHlaeBz2SKWJm9xy233DLl+b/+9a/15wEAWLqEygrHftZ+Cni3UDnza1SOpR+uzd+jyzUqQ0LlW0+lTUWU7b83PTE6nk5W7EfrZjpCZTeDg4P5Gp1+smt1dZ6CuFR0rsWZeOaZZ9q2feCBB/JnFgY30uF8sW/fvrbfi8UsdFX7lO0r58bhw4frR0FmR4dfddVV6fLLL2+ue3HUafnXopj33nuvvn32H6Guv/76tufuueee+nMAACxdQmWlY+mJ0ingN95Q/LgjBDZD48zv+t0WCoNDZStA9qedr+QPVjj87eIC+EJlN53/2Jpuqq6VtlR0rsWZeOedd9q2Xbt2bf7M+S/79XYjHc4nnbEy+48tC13nfzASKedX+TT6gYGB+mNVsbIIlZk//OEPbc8tpD/XAQA4N4TKbt54onUKeHM6QuBHh9PONflzG/aksaqbcpeve3nlpvTUW/njmeBQOd48crS/eT3OKcqnwguVXXVef3C6qbpW2lLRuRZnIjv6prxtdir4QuFGOpyP9u/fn6644or6JSmyy1csdNk+rFu3rr5P2b4xv+6+++62P+eOHDlSf7wcK4tTvwvZqd7lbbLYCQDA0iZUTqN8CnhjpobAtms8tp0+fTKdeHUk7VjXukHNxo7rQ4af+l060vOym7elkVdP1L51w8n/HUsHH7kj9bfFWqFyOtNd+62YpX6ttM71OBOPP/5427ZbtmzJnzn/uZEOsNgNDQ21/Tn3xS9+sX6n8Ex2FGX5SMpC57V7F9Kf6wAAnBtC5bTKp4BnUx0Cx5++tyPodU5f2vjIn9OJ/PVN0aGy9o0OfrP9BiVTpm9j2nNgT9qU/7ztOwiVU3S79ls2TkOcXah866230u7du6ds++ijj+avOP+5kQ6w2L322mttf85lk11LuIiVnZ5//vkpr//lL3+ZPwsAwFIlVJ5O2yng3UJgzfGxNLxrU1q/pnUEZd+a9WnTt55Ih9+qOie8JjxUZk6m8QN70pYv9ae+Yj+v7Ev9X9qS9uwfS8frR4eOpT35dTpXfftwfas6obJSVawUKRs612W2s2rVqvT222/n73r+yE5rLF+nbaZT3HiChmIdO9dltuvbbZbaup/t9es2Ueu62PdvIXjwwQenrNcdd9yRJicn81c0/OUvf0lXX3112+u+8IUvLNnrNwMA0LLEQiXMj+Hh4fTJT36yPtmPaSj/o3Qu87vf/S5/x/PLXCJJti0N5XUsr8tc1rfbLKV1Pxfr120i1nWx799C8OGHH6bbbrttynplEfLVV19N77//fv06zZ/+9Kfbns+u25sdkQkAAEIlMG8678p7pnPdddelF154IX+3889cQonw0VJex/K6zGV9u81SWvdzsX7dJmJdF/v+LRTvvvtuZaycbpbyTeYAAGgnVALzJrsr780331z5D9Vuc+2116Y777wzPfbYY+nEiSlXej2vzPbU02wbp5K2FOvYuS6zXd9us9TW/WyvX7eJWtfFvn8LSXZdynvvvbdy/cqTHUk5MjKSbwUAAEIlAADnwCOPPFIZKLNZv359Onas87rZAAAsdUIlAADnRHbtyR07dqSBgYG0du3atHPnzvTSSy+lf/3rX/krAACgRagEAAAAAMIJlQAAAABAOKESAAAAAAgnVAIAAAAA4YRKAAAAACCcUAkAAAAAhBMqAQAAAIBwQiUAAAAAEE6oBAAAAADCCZUAAAAAQDihEgAAAAAIJ1QCAAAAAOGESgAAAAAgnFAJAAAAAIQTKgEAAACAcEIlAAAAABBOqAQAAAAAwgmVAAAAAEA4oRIAAAAACCdUAgAAAADhhEoAAAAAIJxQCQAAAACEEyoBAAAAgHBCJQAAAAAQTqgEAAAAAMIJlQAAAABAuHMeKo0xxhhjjDHGGGOMMWamMxdCpTHGGGOMMcYYY4wx5qzMXDj1GwAAAACYE6ESAAAAAAgnVAIAAAAA4YRKAAAAACCcUAkAAAAAhBMqAQAAAIBwQiUAAAAAEE6oBAAAAADCCZUAAAAAQDihEgAAAAAIJ1QCAAAAAOGESgAAAAAgnFAJAAAAAIQTKgEAAACAcEIlAAAAABBOqAQAAAAAwgmVAAAAAEA4oRIAAAAACCdUAgAAAADhhEoAAAAAIJxQCQAAAACEEyoBAAAAgHBCJQAAAAAQTqgEAAAAAMIJlQAAAABAOKESAAAAAAgnVAIAAAAA4YRKqHDBBRfUBwAAAID5IVRCBaESAAAAYH4JlVBBqAQAAACYX0IlVBAqAQAAAOaXUAkVhEoAAACA+SVUztbY9rS8HrMG0v78oZnaf1Mjgi1/6Gj+COcboRIAAABgfgmVsyVUzsFkOjq8NfX915mu3PwRKgEAAADml1A5W0LlrB399opGCLxJqAQAAACgQaicLaFy1o4+tFyoBAAAAKCNUDlbQuWsCZUAAAAAdFoaoXLyaNr/0EBa8R89zQCVTc/FK9PgzkNp4lT+uikm09Gfb04rL25t13PJQNp1cOL0ofLtQ2nXTStS77L885ZdlFbePpSOTs4tVE4c3p02f2J5633r792bVnxmaxoaq735GdmfBurvsTxtH6vt7dhQ/b17Liy970270qG385dXqa3t0D19aUXvstb36Vle29fd6eXO7Zpr1jlT13BybH/aXl6/2mRrv334aO1X5dwrPhMAAACA+bH4Q+WR7enSIrx1m0u2p9EpsXIi7b+pPWy2picNPLS5e6isfeaKKdvkU/us+9c2fnxmobL2fdb1Tn2/tql9r30T+etnohUqNz80mHqnvF8+PavT3r/nm5RMPL91+rW98NK09fnS95lhqBx9eGXqqXxdY3qu2ZvGu8bls6P4LAAAAADmx+IOlacOpVt78sD1fwbT0CsTzaPxJidG09C6i5pBavXj7cfpNW/4UptL7xlJ4ycaj08eGUqDF+fvWZ+OUHlifxosPrN3ddpdfObkeBp5qK8tBp5JqBx/eGW+XU9a+VDr+6RTk2n8wPa0svjMj21No/lTp1eEynzKa1R739E9q5vBcNktI/UtmsZKMba2n7teHE+T9XhY+z4v7kqre/PnLlhRP1qzbLpTvyeHB5uf2XP51rT/SP7rMjmRRn8+mC4qnvvyocbj50jjuwuVAAAAAPNlUYfKycdX58GpL+2tPNBwPO36eCNI9d71cv5YzamRdGt+yvHybRXZ79TLaevHGs93hsrxnZc2Hl82kIYqPnPi8b58uzMJlaPNz7uo/D3LDtyaltXft7avRcQ8rVKo7Lk1Hao4SvHQf+VHcfZuTa1Pnkx7rym2q+1/1dpO1N67iKfX7G0G4kz3UNnaz+qjXGtvu28gD5mXpl0VR3meLfXvUBsAAAAA5seiDpUv37ci9WbXTvxMeygrK64X2RbNhgfzUNU9+k02g2M5VB5N2y9pvF9b+GzzctqaH20441A5sTcN/Edv6rmwN219MX+sU/O06sb1JmemFSq7ft99A/Xn2/bzVGu7S3eO5w9ONbGnWKP2dewaKl/cmh9xOs1+Zmv8n43Pns01Pmeq8b2FSgAAAID5sqhD5VSTaWJ8PB19cX/a+9Dm1HdJ6RqUpWjWDGn/uT11TWF/K059LofKVsAb2Jc/VGH/usZr5hTaTkyk8fHRNPLzXWnr2pXpouZNZ2YXKgf+X/5Qp6pQeeT+ZhS9/0j+WJXmGi1Ltx7MH6vpFipbp7eX13SqQ1/Ob9wzTYCeq8b3ECoBAAAA5sviD5VVd6WumlI0K0Li9CGsiHylqNYMc9MdEdgKdWcaKicO7kqD5btyV84sQ2W3sFoVKkuPDU17U5vq9+8WKpuPz3SmC8lzVHwGAAAAAPNjcYfK8nUSs7mwJ/VevDINfH5z2v5/h9LIKxNpqOLU7/MxVI4+1Lq5TzbLenvTis8MpsF7dqWh4ZfT+OHWUY5C5dwVnwEAAADA/FjEobJ8w5fVaXdx9+gOVdeobAazi+/vfgft8d1pZT1mlU9TLoW5bqdS1xSnLs84VL6ytXm36xV3jaTxql2Z4zUqzyhUzvTU7+Z3ag+3XUNlcaf16dZ9njT2WagEAAAAmC+LOFS2ItzKh7vd8KV1Y5u2aHawuIP2NHeWrgp4aTzt/kTj/ZbdMpI/1unMbwbTDHvLbk2H8sc6tW7uMw+hcoY302neAX2mN9OZybrPk8b3FioBAAAA5suSCJXdYtrEzwfyMNYRzU4dSrfmp4z31B6fyB9uOjXavLt3e6gs3xBmRdpecbThxL6B1JN/5mxC5UjVqdaTo+n+PH7OS6hsO1q19viUBaopn3Z/Tfsp9M39mXJq/aG0ebp1z9TWvr6vPb3polv2T3Nq/tw09lmoBAAAAJgvizhUjqddH2/Epiwabj0wnibzyDf595fT7s/nsayYjqP7JppHKF6QLlo3lEYnGkls8u8jafvlpbuFd4TKdOrltPVj+XM9K9P24nMnJ9Lozwebp3BnM+NTvw8URxpekHqu2d38LvX3HN6a+oqjQuszH6GyZqy4Hmdtevta+5km0/iLu9Lq5neaGmybp3gvG0z7O0pjOeT2XrU9jfy9eMFkmnhlKA1eXLzvRVOuA9o8jb/zu9ZM91xrH1vrUPwcAAAAgPmxiENlzYutaztWzsWb0+778tOTL+m8MctEOnRPcepyxXz80vz6ixXh6+97S6Guc3rTpZf01n8885vpjKe915TjaOf0pr6d29PgssbPB4fzzU5rDqGyZuL5renS6e5AfuHytPlAxXGRz29uxsjGrEjb/5Y/VzP67WnWvT69afXjU4+SFSoBAAAAFq7FHSprJseG0uZPLE89zaC2LPVeMpC2Dx9tnDbcvFFN9XURJw7uSgOX9LZOEe9ZkQZ2HkoTzes0VoSvzOTRNHT7yrS8edfxZemiT2xOQ2OTzVOfZx4qa05NpEM7B9KK3saNeBrfZXlaefvu9PLb2Qtap2N3vz5mp7mFyroTox37md2RfEXqu2cojZauS9lp9OHV6aI8rGZrc+vB/Inc5Nj+tP2mFam3+ZraZPv7+V1ppPJuQkIlAAAAwEK26EMlzIZQCQAAADC/hEqoIFQCAAAAzC+hEioIlQAAAADzS6iECkIlAAAAwPwSKqGCUAkAAAAwv4RKqCBUAgAAAMwvoRIAAAAACCdUAgAAAADhhEoAAAAAIJxQCQAAAACEEyoBAAAAgHBCJQAAAAAQTqgEAAAAAMIJlQAAAABAOKESAAAAAAgnVAIAAAAA4YRKAAAAACCcUAkAAAAAhBMqAQAAAIBwQiUAAAAAEE6oBAAAAADCCZUAAAAAQDihEgAAAAAIJ1QCAAAAAOGESgAAAAAgnFAJAAAAAIQTKgEAAACAcEIlAAAAABBOqAQAAAAAwgmVAAAAAEA4oRIAAAAACCdUAgAAAADhhEoAAAAAIJxQCQAAAACEEyoBAAAAgHBCJQAAAAAQTqgEAAAAAMIJlQAAAABAOKESAAAAAAgnVAIAAAAA4YRKAAAAACCcUAkAAAAAhBMqAQAAAIBwQiUAAAAAEE6oBAAAAADCCZUAAAAAQDihEgAAAAAIJ1QCAAAAAOGESgAAAAAgnFAJAAAAAIQTKgEAAACAcEIlAAAAABBOqAQAAAAAwgmVAAAAAEA4oRIAAAAACCdUAgAAAADhhEoAAAAAIJxQCQAAAACEEyoBAAAAgHBCJQAAAAAQTqgEAAAAAMIJlQAAAABAOKESAAAAAAgnVAIAAAAA4YRKAAAAACCcUAkAAAAAhBMqAQAAAIBwQiUAAAAAEE6oBAAAAADCCZUAAAAAQDihEgAAAAAIJ1QCAAAAAOGESgAAAAAgnFAJAAAAAIQTKgEAAACAcEIlAAAAABBOqAQAAAAAwgmVAAAAAEA4oRIAAAAACCdUAgAAAADhhEoAAAAAIJxQCQAAAACEEyoBAAAAgHBCJQAAAAAQTqgEAAAAAMIJlQAAAABAOKESAAAAAAgnVAIAAAAA4YRKAAAAACCcUAkAAAAAhBMqAQAAAIBwQiUAAAAAEE6oBAAAAADCCZUAAAAAQDihEgAAAAAIJ1QCAAAAAOGESgAAAAAgnFAJAAAAAIQTKgEAAACAcEIlAAAAABBOqAQAAAAAwgmVAAAAAEA4oRIAAAAACCdUAgAAAADhhEoAAAAAIJxQCQAAAACEEyoBAAAAgHBCJQAAAAAQTqgEAAAAAMIJlQAAAABAOKESAAAAAAgnVAIAAAAA4YRKAAAAACCcUAkAAAAAhBMqAQAAAIBwQiUAAAAAEE6oBAAAAADCCZUAAAAAQDihEgAAAAAIJ1QCAAAAAOGESgAAAAAgnFAJAAAAAIQTKgEAAACAcEIlAAAAABBOqAQAAAAAwgmVAAAAAEA4oRIAAAAACCdUAgAAAADhhEoAAAAAIJxQCQAAAACEEyoBAAAAgHBCJQAAAAAQTqgEAAAAAMIJlQAAAABAOKESAAAAAAgnVAIAAAAA4YRKAAAAACCcUAkAAAAAhBMqAQAAAIBwQiUAAAAAEE6oBAAAAADCCZUAAAAAQDihEgAAAAAIJ1QCAAAAAOGESgAAAAAgnFAJAAAAAIQTKgEAAACAcEIlAAAAABBOqAQAAAAAwgmVAAAAAEA4oRIAAAAACCdUAgAAAADhhEoAAAAAIJxQCQAAAACEEyoBAAAAgHBCJQAAAAAQTqgEAAAAAMIJlQAAAABAOKESAAAAAAgnVAIAAAAA4YRKAAAAACCcUAkAAAAAhBMqAQAAAIBwQiUAAAAAEE6oBAAAAADCCZUAAAAAQDihEgAAAAAIJ1QCAAAAAOGESgAAAAAgnFAJAAAAAIQTKgEAAACAcEIlAAAAABBOqAQAAAAAwgmVAAAAAEA4oRIAAAAACCdUAgAAAADhhEoAAAAAIJxQCQAAAACEEyoBAAAAgHBCJQAAAAAQTqgEAAAAAMIJlQAAAABAOKESAAAAAAgnVAIAAAAA4YRKAAAAACCcUAkAAAAAhBMqAQAAAIBwQiUAAAAAEE6oBAAAAADCCZUAAAAAQDihEgAAAAAIJ1QCAAAAAOGESgAAAAAgnFAJAAAAAIQTKgEAAACAcEIlAAAAABBOqAQAAAAAwgmVAAAAAEA4oRIAAAAACCdUAgAAAADhhEoAAAAAIJxQCQAAAACEEyoBAAAAgHBCJQAAAAAQTqgEAAAAAMIJlQAAAABAOKESAAAAAAgnVAIAAAAA4YRKAAAAACCcUAkAAAAAhBMqAQAAAIBwQiUAAAAAEE6oBAAAAADCCZUAAAAAQDihEgAAAAAIJ1QCAAAAAOGESgAAAAAgnFAJAAAAAIQTKgEAAACAcEIlAAAAABBOqAQAAAAAwgmVAAAAAEA4oRIAAAAACCdUAgAAAADhhEoAAAAAIJxQCQAAAACEEyoBAAAAgHBCJQAAAAAQTqgEAAAAAMIJlQAAAABAOKESAAAAAAgnVAIAAAAA4YRKAAAAACCcUAkAAAAAhBMqAQAAAIBwQiUAAAAAEE6oBAAAAADCCZUAAAAAQDihEgAAAAAIJ1QCAAAAAOGESgAAAAAgnFAJAAAAAIQTKgEAAACAcEIlAAAAABBOqAQAAAAAwgmVAAAAAEA4oRIAAAAACCdUAgAAAADhhEoAAAAAIJxQCQAAAACEEyoBAAAAgHBCJQAAAAAQTqgEAAAAAMIJlQAAAABAOKESAAAAAAgnVAIAAAAA4YRKAAAAACCcUAkAAAAAhBMqAQAAAIBwQiUAAAAAEE6oBAAAAADCCZUAAAAAQDihEgAAAAAIJ1QCAAAAAOGESgAAAAAgnFAJAAAAAIQTKgEAAACAcEIlAAAAABBOqAQAAAAAwgmVAAAAAEA4oRIAAAAACCdUAgAAAADhhEoAAAAAIJxQCQAAAACEEyoBAAAAgHBCJQAAAAAQTqgEAAAAAMIJlQAAAABAOKESAAAAAAgnVAIAAAAA4YRKAAAAACCcUAkAAAAAhBMqAQAAAIBwQiUAAAAAEE6oBAAAAADCCZUAAAAAQDihEgAAAAAIJ1QCAAAAAOGESgAAAAAgnFAJAAAAAIQTKgEAAACAcEIlAAAAABBOqAQAAAAAwgmVAAAAAEA4oRIAAAAACCdUAgAAAADhhEoAAAAAIJxQCQAAAACEEyoBAAAAgHBCJQAAAAAQTqgEAAAAAMIJlQAAAABAuLn3xJT+P2JfeuWvusD9AAAAAElFTkSuQmCC;" vertex="1" parent="1">
                    <mxGeometry x="100" y="80" width="1322" height="448" as="geometry"/>
                </mxCell>
            </root>
        </mxGraphModel>
    </diagram>
</mxfile>